<?xml version="1.0" encoding="UTF-8"?>
<svg xmlns="http://www.w3.org/2000/svg" version="1.1" xmlns:xlink="http://www.w3.org/1999/xlink"
     xmlns:svgjs="http://svgjs.com/svgjs" width="1440" height="560" preserveAspectRatio="none" viewBox="0 0 1440 560"
     xmlns:xsi="http://www.w3.org/2001/XMLSchema-instance" xsi:schemaLocation="http://svgjs.com/svgjs ">
    <g mask="url(&quot;#SvgjsMask1006&quot;)" fill="none">
        <rect width="1440" height="560" x="0" y="0" fill="#0e2a47"></rect>
        <path d="M 0,178 C 57.6,169.8 172.8,127.6 288,137 C 403.2,146.4 460.8,237.4 576,225 C 691.2,212.6 748.8,77.8 864,75 C 979.2,72.2 1036.8,225.2 1152,211 C 1267.2,196.8 1382.4,45.4 1440,4L1440 560L0 560z"
              fill="#184a7e"></path>
        <path d="M 0,402 C 96,423.8 288,525.8 480,511 C 672,496.2 768,328.6 960,328 C 1152,327.4 1344,472 1440,508L1440 560L0 560z"
              fill="#2264ab"></path>
    </g>
    <defs>
        <mask id="SvgjsMask1006">
            <rect width="1440" height="560" fill="#ffffff"></rect>
        </mask>
    </defs>
</svg>